<svg xmlns="http://www.w3.org/2000/svg" width="1400" height="520" viewBox="0 0 1400 520" role="img" aria-labelledby="title desc">
  <title id="title">Moshaver v2</title>
  <desc id="desc">Moshaver role-aware education platform with Admin, Student and API applications.</desc>
  <defs>
    <linearGradient id="bg" x1="0" y1="0" x2="1" y2="1">
      <stop offset="0%" stop-color="#082f2d"/>
      <stop offset="52%" stop-color="#0f766e"/>
      <stop offset="100%" stop-color="#115e59"/>
    </linearGradient>
    <linearGradient id="glow" x1="0" y1="0" x2="1" y2="1">
      <stop offset="0%" stop-color="#99f6e4" stop-opacity="0.30"/>
      <stop offset="100%" stop-color="#fbbf24" stop-opacity="0.08"/>
    </linearGradient>
    <filter id="shadow" x="-20%" y="-20%" width="140%" height="140%">
      <feDropShadow dx="0" dy="14" stdDeviation="18" flood-color="#022c22" flood-opacity="0.28"/>
    </filter>
  </defs>

  <rect width="1400" height="520" rx="34" fill="url(#bg)"/>
  <circle cx="1250" cy="70" r="210" fill="#2dd4bf" opacity="0.08"/>
  <circle cx="1160" cy="460" r="250" fill="#f59e0b" opacity="0.055"/>
  <circle cx="70" cy="470" r="170" fill="#5eead4" opacity="0.06"/>

  <g opacity="0.14" stroke="#ccfbf1" fill="none">
    <path d="M1020 52h250M1040 82h205M1090 112h145"/>
    <path d="M90 388h250M120 418h205M170 448h145"/>
  </g>

  <g transform="translate(92 94)">
    <rect x="0" y="0" width="92" height="92" rx="25" fill="#f0fdfa" opacity="0.96" filter="url(#shadow)"/>
    <path d="M22 62V29c0-8 9-12 15-7l9 8 9-8c6-5 15-1 15 7v33" fill="none" stroke="#0f766e" stroke-width="9" stroke-linecap="round" stroke-linejoin="round"/>
    <circle cx="46" cy="64" r="7" fill="#d97706"/>
  </g>

  <text x="215" y="135" font-family="Inter, ui-sans-serif, system-ui, -apple-system, BlinkMacSystemFont, Segoe UI, sans-serif" font-size="62" font-weight="800" fill="#ffffff" letter-spacing="1">MOSHAVER</text>
  <text x="218" y="181" font-family="Inter, ui-sans-serif, system-ui, -apple-system, BlinkMacSystemFont, Segoe UI, sans-serif" font-size="22" font-weight="600" fill="#99f6e4" letter-spacing="4">EDUCATION PLATFORM · V2</text>

  <text x="92" y="260" font-family="Inter, ui-sans-serif, system-ui, -apple-system, BlinkMacSystemFont, Segoe UI, sans-serif" font-size="31" font-weight="650" fill="#ecfdf5">Plan learning. Connect people. Measure progress.</text>
  <text x="92" y="303" font-family="Inter, ui-sans-serif, system-ui, -apple-system, BlinkMacSystemFont, Segoe UI, sans-serif" font-size="20" fill="#ccfbf1">A role-aware platform for students, counselors, guardians and education teams.</text>

  <g transform="translate(92 358)" filter="url(#shadow)">
    <rect x="0" y="0" width="270" height="92" rx="22" fill="#ffffff" opacity="0.11" stroke="#99f6e4" stroke-opacity="0.34"/>
    <circle cx="43" cy="46" r="22" fill="#5eead4" opacity="0.20"/>
    <path d="M33 48h20M37 39h12M37 57h12" stroke="#ccfbf1" stroke-width="3" stroke-linecap="round"/>
    <text x="80" y="40" font-family="Inter, ui-sans-serif, system-ui, sans-serif" font-size="20" font-weight="700" fill="#fff">Admin</text>
    <text x="80" y="66" font-family="Inter, ui-sans-serif, system-ui, sans-serif" font-size="14" fill="#ccfbf1">Operations &amp; insights</text>

    <rect x="292" y="0" width="270" height="92" rx="22" fill="#ffffff" opacity="0.11" stroke="#99f6e4" stroke-opacity="0.34"/>
    <circle cx="335" cy="46" r="22" fill="#fde68a" opacity="0.20"/>
    <path d="M327 37h16v20h-16zM331 33h8" stroke="#fef3c7" stroke-width="3" fill="none" stroke-linecap="round" stroke-linejoin="round"/>
    <text x="372" y="40" font-family="Inter, ui-sans-serif, system-ui, sans-serif" font-size="20" font-weight="700" fill="#fff">Student</text>
    <text x="372" y="66" font-family="Inter, ui-sans-serif, system-ui, sans-serif" font-size="14" fill="#ccfbf1">Web · PWA · Tauri</text>

    <rect x="584" y="0" width="270" height="92" rx="22" fill="#ffffff" opacity="0.11" stroke="#99f6e4" stroke-opacity="0.34"/>
    <circle cx="627" cy="46" r="22" fill="#a7f3d0" opacity="0.20"/>
    <path d="M616 39l-8 7 8 7M638 39l8 7-8 7M631 33l-8 26" stroke="#d1fae5" stroke-width="3" fill="none" stroke-linecap="round" stroke-linejoin="round"/>
    <text x="664" y="40" font-family="Inter, ui-sans-serif, system-ui, sans-serif" font-size="20" font-weight="700" fill="#fff">API v2</text>
    <text x="664" y="66" font-family="Inter, ui-sans-serif, system-ui, sans-serif" font-size="14" fill="#ccfbf1">NestJS · Fastify · CMB</text>
  </g>

  <g transform="translate(1020 206)">
    <rect x="0" y="0" width="286" height="246" rx="28" fill="url(#glow)" stroke="#99f6e4" stroke-opacity="0.22"/>
    <text x="30" y="48" font-family="Inter, ui-sans-serif, system-ui, sans-serif" font-size="14" font-weight="700" fill="#99f6e4" letter-spacing="2">ONE PRODUCT LINE</text>
    <text x="30" y="91" font-family="Inter, ui-sans-serif, system-ui, sans-serif" font-size="22" font-weight="700" fill="#ffffff">Role-aware by design</text>
    <text x="30" y="126" font-family="Inter, ui-sans-serif, system-ui, sans-serif" font-size="16" fill="#d1fae5">Planning · Exams · Reports</text>
    <text x="30" y="155" font-family="Inter, ui-sans-serif, system-ui, sans-serif" font-size="16" fill="#d1fae5">Chat · Resources · Alerts</text>
    <text x="30" y="184" font-family="Inter, ui-sans-serif, system-ui, sans-serif" font-size="16" fill="#d1fae5">Security · Sync · Analytics</text>
    <rect x="30" y="207" width="126" height="5" rx="2.5" fill="#5eead4"/>
    <rect x="162" y="207" width="44" height="5" rx="2.5" fill="#fbbf24"/>
  </g>
</svg>
